HIERARCHY
ROOT Hips
{
  OFFSET 0.00355045 101.413 203.47
  CHANNELS 6 Xposition Yposition Zposition Zrotation Xrotation Yrotation
  JOINT RightUpLeg
  {
    OFFSET -8.9458 -8.66707 0.101652
    CHANNELS 3 Zrotation Xrotation Yrotation
    JOINT RightLeg
    {
      OFFSET 0 -44.4227 1.3727
      CHANNELS 3 Zrotation Xrotation Yrotation
      JOINT RightFoot
      {
        OFFSET 0.253549 -42.0924 -1.46059
        CHANNELS 3 Zrotation Xrotation Yrotation
        JOINT RightToes
        {
          OFFSET 0.04 -4.41509 8.4991
          CHANNELS 3 Zrotation Xrotation Yrotation
          End Site
          {
            OFFSET -0.08 -0.137448 9.77979
          }
        }
      }
    }
  }
  JOINT Spine
  {
    OFFSET 0 11.8905 0
    CHANNELS 3 Zrotation Xrotation Yrotation
    JOINT Spine1
    {
      OFFSET 0 25.6574 0.127663
      CHANNELS 3 Zrotation Xrotation Yrotation
      JOINT HEad
      {
        OFFSET 0 8.73416 0.011341
        CHANNELS 3 Zrotation Xrotation Yrotation
        End Site
        {
          OFFSET -0.29 12.7742 2.51395
        }
      }
      JOINT LeftShoulder1
      {
        OFFSET 8.99 -0.362252 -0.22
        CHANNELS 3 Zrotation Xrotation Yrotation
        JOINT LeftArm
        {
          OFFSET 10.2827 -0.00338 0.322123
          CHANNELS 3 Zrotation Xrotation Yrotation
          JOINT LeftForeArm
          {
            OFFSET 32.7669 0.099144 -1.42434
            CHANNELS 3 Zrotation Xrotation Yrotation
            JOINT LeftHand
            {
              OFFSET 27.5643 0.085362 1.02216
              CHANNELS 3 Zrotation Xrotation Yrotation
              End Site
              {
                OFFSET 16.7443 -0.6 1.50291
              }
            }
          }
        }
      }
      JOINT RightShoulder
      {
        OFFSET -8.99 -0.362252 -0.22
        CHANNELS 3 Zrotation Xrotation Yrotation
        JOINT RightArm
        {
          OFFSET -10.2827 -0.00338 0.322123
          CHANNELS 3 Zrotation Xrotation Yrotation
          JOINT RightForeArm
          {
            OFFSET -32.8971 0.099144 -1.42434
            CHANNELS 3 Zrotation Xrotation Yrotation
            JOINT RightHand
            {
              OFFSET -27.4921 0.085362 1.02216
              CHANNELS 3 Zrotation Xrotation Yrotation
              End Site
              {
                OFFSET -16.6312 -0.6 1.50291
              }
            }
          }
        }
      }
    }
  }
  JOINT LeftUpLeg
  {
    OFFSET 8.9458 -8.66707 0.101652
    CHANNELS 3 Zrotation Xrotation Yrotation
    JOINT LeftLeg
    {
      OFFSET 0 -44.4227 1.3727
      CHANNELS 3 Zrotation Xrotation Yrotation
      JOINT LeftFoot
      {
        OFFSET -0.253549 -42.0924 -1.46059
        CHANNELS 3 Zrotation Xrotation Yrotation
        JOINT LeftToes
        {
          OFFSET -0.04 -4.41509 8.4991
          CHANNELS 3 Zrotation Xrotation Yrotation
          End Site
          {
            OFFSET 0.08 -0.047448 9.77979
          }
        }
      }
    }
  }
}
MOTION
Frames:	9
Frame Time:	0.0166667
3.92549 100.73 26.3732 -1.29474 3.9952 -177.52 -0.602874 -19.1794 -7.17664 4.53653 18.0318 1.79991 -15.691 6.29437 1.16887 35.8173 -1.23492 -22.7554 -3.14887 2.68172 -0.245884 -1.4504 -4.19146 -0.338855 4.66668 20.5271 -5.36643 3.23025e-016 0 -0 -83.8489 -11.6124 -13.2559 -23.7862 13.1562 -6.5678 0.368473 9.90896 -0.00117926 8.50221 -1.41011 -12.3098 78.0955 -32.6328 10.0957 19.1936 11.4786 -3.76522 -0.369625 9.91382 0.00119886 -1.94727 10.0764 5.92751 -0.445774 35.6333 8.62327 -1.52591 -9.44615 -0.0246202 -11.2015 -25.7893 -22.1111 
4.16495 100.907 24.3655 -0.909094 4.39621 -177.637 0.0379776 -18.0705 -7.44173 4.41722 19.3415 2.23709 -16.1205 4.65742 0.967208 36.1157 -1.6149 -22.8615 -3.18655 2.71047 -0.0278992 -0.676155 -3.91301 -0.31673 4.42615 20.8195 -5.51534 2.98177e-016 -7.95139e-016 -1.98785e-016 -84.46 -12.7825 -12.6889 -23.0442 12.8654 -4.98824 0.368473 9.90896 -0.00117926 7.63393 -1.34935 -12.3679 79.1765 -32.3485 10.7665 19.0037 11.4853 -3.85157 -0.369625 9.91382 0.00119886 -0.985354 8.6853 6.65851 0.233478 39.5365 9.31958 -2.4367 -5.73275 0.0246373 -11.4651 -5.78806 -27.7072 
4.39554 101.053 22.4797 -0.510706 4.76391 -177.645 0.679901 -16.9306 -8.49905 4.09057 20.4526 3.26805 -16.5971 2.98381 0.756288 36.419 -1.7122 -23.0452 -3.10224 2.79557 0.151704 0.0157699 -3.50064 -0.293635 4.27688 20.9036 -5.72857 -1.39149e-015 7.95139e-016 -7.95139e-016 -85.0514 -13.8305 -12.313 -22.2104 12.5909 -3.41999 0.368473 9.90896 -0.00117926 6.68898 -1.28683 -12.445 80.4631 -31.9357 11.5061 18.8429 11.5302 -3.69572 -0.369625 9.91382 0.00119886 -0.0715827 6.71879 7.39206 1.20131 43.9169 9.12549 -3.25857 -1.94673 0.095339 -7.75976 11.3245 -31.7195 
4.60894 101.128 20.72 0.0740511 4.95747 -177.554 1.33619 -15.9174 -9.54647 4.00358 21.3083 4.09493 -17.0684 1.52826 0.56182 36.8885 -1.67921 -23.3854 -2.57645 2.98423 0.237317 0.714007 -3.22079 -0.277913 4.00955 20.9737 -5.7991 8.69683e-016 0 -0 -85.4192 -14.8216 -11.8949 -21.5906 12.3557 -2.03173 0.368473 9.90896 -0.00117926 5.73634 -1.20332 -12.3872 81.5183 -31.3675 11.902 18.9193 11.6188 -3.11014 -0.369625 9.91382 0.00119886 0.723369 4.32554 8.10739 3.06623 48.3433 6.17867 -3.5357 1.52592 0.188301 -4.7239 16.9145 -25.9729 
4.7929 101.216 19.0499 0.619905 5.02248 -177.399 1.90566 -14.9111 -10.3104 4.1023 21.7771 4.5384 -17.4536 0.273021 0.385752 37.2282 -1.70097 -23.6179 -1.98398 3.16914 0.28484 1.32343 -2.99125 -0.266761 3.74592 20.9182 -5.87484 -1.2424e-016 -7.95139e-016 3.97569e-016 -85.6912 -15.7291 -11.5307 -21.0945 12.1479 -0.770084 0.368473 9.90896 -0.00117926 4.87549 -1.11635 -12.2416 82.3972 -30.6882 12.2318 19.1281 11.7374 -2.27473 -0.369625 9.91382 0.00119886 1.32708 1.6034 8.45883 5.5891 52.6724 2.56758 -3.42808 4.04633 0.254904 -3.11925 18.2571 -16.3367 
4.92592 101.405 17.439 0.972599 4.93396 -177.202 2.2549 -13.8235 -10.0348 4.56532 21.5899 3.891 -17.5907 -0.66091 0.24473 37.0453 -2.07548 -23.3839 -1.60016 3.2393 0.33569 1.80505 -2.83419 -0.260661 3.55444 20.664 -6.08505 -1.2424e-016 -1.59028e-015 3.97569e-016 -85.9513 -16.5256 -11.2562 -20.741 11.9606 0.376971 0.368473 9.90896 -0.00117926 4.25192 -1.03814 -11.9959 82.949 -29.9193 12.6231 19.4622 11.879 -1.26737 -0.369625 9.91382 0.00119886 1.53005 -1.37944 7.98783 7.3354 56.9433 1.19992 -2.90489 4.54712 0.225907 -1.87107 18.7742 -8.84052 
5.02731 101.64 15.874 1.09948 4.76299 -177.013 2.3311 -12.7144 -9.41059 5.15177 21.1082 2.9341 -17.6646 -1.43507 0.121387 36.792 -2.61645 -23.0502 -1.40328 3.25285 0.377647 2.079 -2.70285 -0.258108 3.38315 20.2891 -6.27829 -7.45443e-017 7.95139e-016 -0 -86.1306 -17.2777 -11.0207 -20.5023 11.7993 1.36351 0.368473 9.90896 -0.00117926 3.79662 -0.965413 -11.6743 83.3353 -29.095 13.103 19.8383 12.0288 -0.206738 -0.369625 9.91382 0.00119886 1.30045 -4.44038 7.00762 8.32128 60.7479 0.846078 -2.04509 3.92795 0.15888 -0.719528 18.4763 -2.71619 
5.10498 101.917 14.3292 0.854581 4.5581 -176.904 2.02831 -11.6075 -8.79126 5.7249 20.5451 2.17331 -17.8095 -2.13096 0.011935 36.8331 -3.29057 -22.8837 -1.55153 3.21251 0.428964 2.03224 -2.58111 -0.258851 3.16359 19.8168 -6.32726 9.93923e-017 0 7.95139e-016 -86.1959 -18.0481 -10.8104 -20.3543 11.662 2.1757 0.368473 9.90896 -0.00117926 3.47873 -0.900632 -11.3108 83.6447 -28.2257 13.7395 20.1933 12.1735 0.768863 -0.369625 9.91382 0.00119886 0.513881 -7.36811 5.52925 8.28616 63.5601 1.01505 -0.730669 2.63508 0.0809118 -0.147517 19.7077 0.483461 
5.1716 102.182 12.8103 0.418104 4.36197 -176.835 1.52139 -10.5453 -8.39123 6.17678 20.0989 1.71967 -18.0257 -2.86781 -0.106949 37.0127 -3.92616 -22.825 -1.78117 3.17344 0.439674 1.72516 -2.3992 -0.259628 3.02796 19.3391 -6.29384 -1.2424e-016 0 3.97569e-016 -86.1077 -18.8228 -10.5489 -20.3039 11.5642 2.72923 0.368473 9.90896 -0.00117926 3.33015 -0.839031 -10.8643 83.9316 -27.4007 14.5291 20.4702 12.3092 1.63826 -0.369625 9.91382 0.00119886 -0.602938 -10.1378 3.93018 7.66206 65.5809 1.68912 0.45441 0.961405 0.0165639 0.108034 20.1961 2.42639 
